#!OML:ASF H:\Punching\Project 1\Capture day 1\Session 1\female.ASF
:FULLY-SPECIFIED
:DEGREES
1032
root -1.42024 15.5122 7.65936 11.7657 -8.41046 0.477395
lowerback -4.54498 -0.495554 1.56549
upperback -7.13163 -0.711747 -0.217613
thorax -4.85455 -0.451105 -1.10165
lowerneck -4.85597 8.69919 16.1016
upperneck 28.1164 12.6073 -9.43148
head 11.6238 6.49077 -4.65668
rclavicle -3.21845e-014 1.13307e-014
rhumerus -30.5234 5.54325 -84.6578
rradius 67.0528
rwrist -41.5947
rhand -19.6273 -20.8441
rfingers 7.12502
rthumb 6.69963 -50.7181
lclavicle -3.21845e-014 1.13307e-014
lhumerus -32.8435 4.70685 73.9388
lradius 78.847
lwrist 52.3153
lhand -19.8777 40.0394
lfingers 7.12502
lthumb 6.45786 69.9209
rfemur -18.5736 2.88611 16.8091
rtibia 33.764
rfoot -24.5265 -16.9274
rtoes -2.89244
lfemur -9.46004 -3.25506 -17.5586
ltibia 25.974
lfoot -22.5377 20.2178
ltoes -9.5553
1033
root -1.42847 15.5077 7.6742 11.647 -8.49331 0.34035
lowerback -4.40729 -0.537625 1.88889
upperback -7.05625 -0.769855 -0.223557
thorax -4.86032 -0.49601 -1.28778
lowerneck -4.71359 8.76644 16.161
upperneck 28.2192 12.7541 -9.53169
head 11.6716 6.55797 -4.6903
rclavicle -1.59835e-014 7.7526e-015
rhumerus -29.126 6.74828 -85.205
rradius 69.1429
rwrist -42.2498
rhand -19.7524 -21.0899
rfingers 7.12502
rthumb 6.57888 -50.9678
lclavicle -1.59835e-014 7.7526e-015
lhumerus -30.8652 3.66844 74.1764
lradius 80.6106
lwrist 52.8719
lhand -19.8411 40.0745
lfingers 7.12502
lthumb 6.49318 69.9549
rfemur -18.2905 2.76714 16.9787
rtibia 33.5914
rfoot -24.4495 -16.6588
rtoes -3.14868
lfemur -10.4875 -2.35186 -17.3359
ltibia 28.3361
lfoot -22.6049 19.4049
ltoes -11.1646
1034
root -1.43542 15.5053 7.68869 11.547 -8.54392 0.165651
lowerback -4.25001 -0.583905 2.25781
upperback -6.98209 -0.832297 -0.217803
thorax -4.88041 -0.544968 -1.48685
lowerneck -4.57488 8.83614 16.2261
upperneck 28.3023 12.9049 -9.64261
head 11.7146 6.62623 -4.72788
rclavicle 2.63017e-014 1.98785e-016
rhumerus -27.6791 7.95091 -85.7167
rradius 71.2273
rwrist -42.8481
rhand -19.9524 -21.2759
rfingers 7.12502
rthumb 6.38577 -51.1596
lclavicle 2.63017e-014 1.98785e-016
lhumerus -28.8003 2.63054 74.3853
lradius 82.2821
lwrist 53.4161
lhand -19.8157 40.0424
lfingers 7.12502
lthumb 6.51771 69.9221
rfemur -17.9867 2.65443 17.1913
rtibia 33.3492
rfoot -24.3148 -16.4426
rtoes -3.38262
lfemur -11.6586 -1.49624 -17.0515
ltibia 30.9155
lfoot -22.5164 18.5514
ltoes -12.8129
1035
root -1.44124 15.5042 7.70299 11.4587 -8.55719 -0.0368035
lowerback -4.07743 -0.638025 2.65406
upperback -6.90378 -0.90344 -0.199003
thorax -4.90681 -0.599101 -1.68727
lowerneck -4.45044 8.90746 16.2871
upperneck 28.3805 13.0569 -9.75512
head 11.7591 6.69392 -4.7646
rclavicle 7.1811e-015 -7.95139e-016
rhumerus -26.1756 9.1557 -86.1832
rradius 73.2779
rwrist -43.3744
rhand -20.0897 -21.2409
rfingers 7.12502
rthumb 6.2532 -51.1286
lclavicle 7.1811e-015 -7.95139e-016
lhumerus -26.6156 1.58833 74.5702
lradius 83.8191
lwrist 53.9354
lhand -19.6892 39.857
lfingers 7.12502
lthumb 6.63988 69.7329
rfemur -17.6603 2.54805 17.4375
rtibia 33.0538
rfoot -24.146 -16.2804
rtoes -3.59344
lfemur -12.9531 -0.6989 -16.7108
ltibia 33.6667
lfoot -22.243 17.6386
ltoes -14.3368
1036
root -1.44583 15.5036 7.71735 11.368 -8.53848 -0.261798
lowerback -3.87805 -0.700678 3.06637
upperback -6.82217 -0.983334 -0.164993
thorax -4.9469 -0.657927 -1.88019
lowerneck -4.32819 8.97957 16.343
upperneck 28.4573 13.2106 -9.86815
head 11.8038 6.76183 -4.80035
rclavicle 3.42282e-015 1.2424e-014
rhumerus -24.6298 10.3691 -86.5969
rradius 75.3025
rwrist -43.8419
rhand -20.1902 -21.0516
rfingers 7.12502
rthumb 6.15624 -50.9421
lclavicle 3.42282e-015 1.2424e-014
lhumerus -24.3438 0.540491 74.7253
lradius 85.2172
lwrist 54.3949
lhand -19.5338 39.6146
lfingers 7.12502
lthumb 6.78989 69.4857
rfemur -17.3081 2.44695 17.7103
rtibia 32.7299
rfoot -23.9619 -16.1648
rtoes -3.78911
lfemur -14.3411 0.0399308 -16.3185
ltibia 36.5372
lfoot -21.7524 16.6686
ltoes -15.6476
1037
root -1.44938 15.5026 7.73164 11.2721 -8.4977 -0.495428
lowerback -3.64951 -0.768173 3.47241
upperback -6.74173 -1.06642 -0.118118
thorax -5.00603 -0.717838 -2.05532
lowerneck -4.20714 9.04891 16.3844
upperneck 28.5432 13.3599 -9.96885
head 11.8498 6.82749 -4.82991
rclavicle -2.81218e-014 6.4605e-015
rhumerus -23.0546 11.5932 -86.9478
rradius 77.2932
rwrist -44.2543
rhand -20.1497 -20.7237
rfingers 7.12502
rthumb 6.1953 -50.6132
lclavicle -2.81218e-014 6.4605e-015
lhumerus -21.9829 -0.529451 74.8518
lradius 86.4615
lwrist 54.7896
lhand -19.2631 39.4712
lfingers 7.12502
lthumb 7.05122 69.3337
rfemur -16.9443 2.35414 17.9928
rtibia 32.4037
rfoot -23.7787 -16.0894
rtoes -3.9724
lfemur -15.8034 0.722629 -15.8891
ltibia 39.4697
lfoot -21.0409 15.6425
ltoes -16.5884
1038
root -1.45186 15.5002 7.74608 11.1675 -8.43921 -0.733125
lowerback -3.3966 -0.838722 3.86393
upperback -6.66307 -1.15012 -0.0592636
thorax -5.08174 -0.777229 -2.20888
lowerneck -4.07717 9.11172 16.4113
upperneck 28.6388 13.5001 -10.0559
head 11.8945 6.88939 -4.85394
rclavicle 1.97418e-014 2.38542e-015
rhumerus -21.4612 12.8279 -87.2292
rradius 79.2552
rwrist -44.6244
rhand -20.0426 -20.3598
rfingers 7.12502
rthumb 6.29869 -50.2462
lclavicle 1.97418e-014 2.38542e-015
lhumerus -19.5434 -1.63233 74.9442
lradius 87.5465
lwrist 55.087
lhand -19.0586 39.0455
lfingers 7.12502
lthumb 7.24857 68.9014
rfemur -16.5775 2.26708 18.2784
rtibia 32.0985
rfoot -23.61 -16.0465
rtoes -4.14312
lfemur -17.315 1.3519 -15.4292
ltibia 42.4054
lfoot -20.1104 14.5716
ltoes -17.1161
1039
root -1.45325 15.4966 7.76102 11.054 -8.37439 -0.966433
lowerback -3.12031 -0.914495 4.22625
upperback -6.58425 -1.2371 0.0131877
thorax -5.17095 -0.836652 -2.33085
lowerneck -3.96197 9.1733 16.4211
upperneck 28.7505 13.6362 -10.1288
head 11.9457 6.94861 -4.87017
rclavicle 2.60532e-014 1.55052e-014
rhumerus -19.8599 14.0926 -87.4348
rradius 81.1937
rwrist -44.9466
rhand -20.0477 -20.0564
rfingers 7.12502
rthumb 6.29376 -49.9429
lclavicle 2.60532e-014 1.55052e-014
lhumerus -17.0576 -2.76856 74.9946
lradius 88.4948
lwrist 55.2994
lhand -18.7937 38.7135
lfingers 7.12502
lthumb 7.50432 68.5604
rfemur -16.2194 2.18712 18.5561
rtibia 31.8317
rfoot -23.457 -16.0328
rtoes -4.32293
lfemur -18.8501 1.93471 -14.9553
ltibia 45.2833
lfoot -18.9846 13.473
ltoes -17.1482
1040
root -1.45354 15.4915 7.77691 10.9395 -8.30861 -1.18686
lowerback -2.82987 -0.993613 4.54718
upperback -6.50933 -1.32532 0.0968645
thorax -5.272 -0.894633 -2.41687
lowerneck -3.85086 9.23325 16.4168
upperneck 28.8762 13.7692 -10.19
head 12.001 7.00606 -4.88021
rclavicle 1.25856e-014 5.26779e-015
rhumerus -18.2451 15.3691 -87.5645
rradius 83.1001
rwrist -45.2474
rhand -20.0217 -19.7959
rfingers 7.12502
rthumb 6.31886 -49.6816
lclavicle 1.25856e-014 5.26779e-015
lhumerus -14.5484 -3.93099 74.9947
lradius 89.3218
lwrist 55.3986
lhand -18.5023 38.4229
lfingers 7.12502
lthumb 7.78559 68.2595
rfemur -15.8839 2.11516 18.8148
rtibia 31.6127
rfoot -23.3249 -16.0432
rtoes -4.51274
lfemur -20.3907 2.4823 -14.483
ltibia 48.0429
lfoot -17.7151 12.3481
ltoes -16.7284
